# xmcd CD database file
#
# Track frame offsets:
#	151
#	12626
#	29635
#	48634
#	67709
#	89026
#	106547
#	124056
#	141375
#	157244
#	176633
#	191358
#
# Disc length: 2838 seconds
#
# Revision: 14
# Processed by: cddbd v1.5.1PL2 Copyright (c) Steve Scherf et al.
# Submitted via: jetAudio 5
#
DISCID=aa0b140c
DTITLE=蔡琴 - 民歌
DYEAR=1996
DGENRE=Pop
TTITLE0=被遗忘的时光
TTITLE1=跟我说爱我
TTITLE2=你的眼神
TTITLE3=想你的时候
TTITLE4=抉择
TTITLE5=我的思念
TTITLE6=出塞曲
TTITLE7=渡口
TTITLE8=怎么能
TTITLE9=恰似你的温柔
TTITLE10=再爱我一次
TTITLE11=谢幕曲
EXTD=YEAR: 1996 ID3G: 13
EXTT0=
EXTT1=
EXTT2=
EXTT3=
EXTT4=
EXTT5=
EXTT6=
EXTT7=
EXTT8=
EXTT9=
EXTT10=
EXTT11=
PLAYORDER=
